<svg width="32" height="32" viewBox="0 0 32 32" fill="none" xmlns="http://www.w3.org/2000/svg">
<rect width="32" height="32" rx="16" fill="black"/>
<path d="M7.53771 11.7234H10.6354V14.732H7.53771V11.7234ZM7.53771 19.9914H10.6354V23H7.53771V19.9914ZM21.8523 7.088H24.3929V23H21.986V21.44H21.9414C21.2506 22.7103 19.9357 23.312 18.3757 23.312C15.0774 23.312 12.9826 20.972 12.9826 17.1611C12.9826 13.3503 15.122 11.1663 17.9746 11.1663C19.6237 11.1663 21.1169 11.8571 21.8077 12.9714H21.8523V7.088ZM15.5231 17.3617C15.5231 19.5903 16.7266 21.3063 18.71 21.3063C20.738 21.3063 21.9414 19.5234 21.9414 17.228C21.9414 14.732 20.7603 13.172 18.7323 13.172C16.7043 13.172 15.5231 14.9103 15.5231 17.3617Z" fill="white"/>
</svg>
